<svg width="96" height="96" viewBox="0 0 96 96" fill="none" xmlns="http://www.w3.org/2000/svg">
<rect width="96" height="96" fill="#F2C4B8"/>
<path d="M74 28.4308H68.0648V64.5692H73.7207V69H57.591V64.5692H62.8978V35.9077H62.6185L47.3965 66.7154H44.6733L29.1022 35.7H28.8229V64.5692H34.2693V69H18.2095V64.5692H23.9352V28.4308H18V24H28.404L46.0698 59.2385H46.3491L63.5262 24H74V28.4308Z" fill="#1B227D"/>
<path d="M86 37.7077L81.5017 38.0538L80.1176 28.4308H68.4913V64.5692H76.4498V69H55.6886V64.5692H63.4394V28.4308H51.8131L50.4291 38.0538L46 37.7077L47.3149 24H84.6159L86 37.7077Z" fill="#1B227D"/>
</svg>
